<?xml version="1.0" standalone="no"?>
<!DOCTYPE svg PUBLIC "-//W3C//DTD SVG 20010904//EN"
 "http://www.w3.org/TR/2001/REC-SVG-20010904/DTD/svg10.dtd">
<svg version="1.0" xmlns="http://www.w3.org/2000/svg"
 width="100.000000pt" height="100.000000pt" viewBox="0 0 100.000000 100.000000"
 preserveAspectRatio="xMidYMid meet">
<metadata>
Created by potrace 1.14, written by Peter Selinger 2001-2017
</metadata>
<g transform="translate(0.000000,100.000000) scale(0.100000,-0.100000)"
fill="#000000" stroke="none">
<path d="M390 987 c0 -6 -3 -8 -6 -4 -3 3 -18 1 -33 -5 -14 -5 -34 -11 -45
-14 -10 -2 -26 -10 -36 -19 -9 -8 -20 -12 -23 -8 -4 3 -7 1 -7 -6 0 -7 -4 -9
-10 -6 -5 3 -10 1 -10 -6 0 -7 -2 -10 -5 -7 -14 14 -175 -174 -181 -211 -7
-41 -18 -70 -24 -66 -12 7 -11 -247 1 -261 5 -7 9 -16 8 -20 -1 -5 3 -22 9
-37 7 -16 12 -33 12 -38 0 -5 5 -9 11 -9 5 0 7 -4 4 -10 -3 -5 -2 -10 2 -10 5
0 17 -13 26 -29 10 -17 34 -47 55 -68 39 -41 132 -109 132 -97 0 4 9 -1 20
-11 11 -10 20 -15 20 -10 0 4 7 2 15 -5 8 -7 15 -9 15 -5 0 4 10 1 23 -8 26
-17 247 -22 247 -5 0 6 9 8 20 5 11 -3 20 -1 20 3 0 5 17 14 38 21 88 28 203
132 247 224 15 30 26 55 25 57 -1 2 5 16 13 31 8 16 14 40 12 53 -1 13 1 24 5
24 3 0 6 40 6 89 -1 49 -4 87 -7 85 -4 -2 -10 11 -14 29 -4 17 -8 34 -9 37
-11 40 -71 134 -111 174 -58 58 -95 89 -95 79 0 -3 -8 1 -17 9 -20 17 -84 44
-95 40 -5 -1 -8 2 -8 6 0 5 -13 8 -30 7 -16 -1 -27 2 -24 6 2 4 -41 7 -96 7
-60 -1 -100 -5 -100 -11z m60 -47 c0 -7 6 -7 19 0 13 7 22 7 26 0 4 -7 12 -7
24 0 10 5 21 6 25 3 4 -4 17 -8 29 -10 12 -2 29 -5 37 -7 40 -8 120 -47 120
-58 0 -5 4 -7 8 -5 5 1 30 -17 56 -40 27 -24 45 -43 40 -43 -4 0 2 -8 12 -17
24 -22 67 -108 81 -163 7 -28 6 -155 -1 -195 -5 -22 -8 -46 -9 -52 0 -7 -4
-13 -8 -13 -5 0 -16 -22 -23 -50 -1 -7 -66 -90 -81 -105 -30 -30 -93 -74 -99
-68 -3 3 -6 2 -6 -3 0 -5 -9 -10 -20 -11 -11 -1 -18 3 -14 8 5 9 15 92 18 152
0 15 5 27 10 27 5 0 3 6 -3 14 -7 8 -8 17 -3 20 5 3 8 22 7 43 -1 21 1 47 5
58 4 11 4 32 -1 47 -5 17 -4 28 2 28 6 0 7 5 3 12 -4 7 -9 26 -11 43 -4 43
-25 108 -40 123 -7 8 -11 18 -8 23 4 5 0 9 -8 9 -8 0 -17 6 -20 13 -5 15 -76
39 -89 31 -4 -3 -8 -1 -8 4 0 14 -69 3 -109 -16 -41 -20 -91 -80 -94 -110 -1
-12 -4 -22 -8 -22 -6 0 -10 -33 -12 -112 -1 -27 -5 -48 -10 -48 -4 0 -5 -5 -1
-12 8 -13 15 -69 17 -145 1 -24 4 -43 7 -43 3 0 6 -17 7 -38 1 -20 3 -53 5
-73 3 -28 1 -35 -15 -36 -10 -1 -21 5 -24 13 -3 7 -9 12 -13 9 -4 -3 -24 10
-43 29 -20 19 -38 32 -40 30 -2 -3 -15 11 -28 31 -13 19 -28 35 -32 35 -5 0
-5 5 -2 10 3 6 1 10 -4 10 -6 0 -11 9 -11 21 0 11 -4 18 -9 15 -8 -5 -26 48
-22 67 0 4 -3 7 -9 7 -5 0 -6 7 -3 17 5 11 3 14 -6 8 -10 -6 -11 -3 -2 13 6
12 7 23 2 26 -12 8 -6 100 12 186 10 47 88 170 122 192 5 3 23 18 39 31 16 14
48 34 70 43 23 10 43 21 46 24 3 3 21 7 40 8 19 2 37 8 38 13 5 12 22 11 22
-1z"/>
</g>
</svg>
