<svg width="37" height="35" viewBox="0 0 37 35" fill="none" xmlns="http://www.w3.org/2000/svg">
<path d="M21.4184 15.5021C21.0638 15.4736 20.7084 15.5471 20.3987 15.7129C20.089 15.8787 19.8394 16.1291 19.6827 16.4313C19.5259 16.7335 19.4693 17.0735 19.5203 17.4066C19.5713 17.7398 19.7274 18.0506 19.9682 18.2984C20.2091 18.5463 20.5234 18.7195 20.8701 18.7955C21.2168 18.8714 21.5797 18.8466 21.9112 18.7242C22.2427 18.6018 22.5274 18.3876 22.728 18.1096C22.9287 17.8315 23.0359 17.5027 23.0356 17.166C23.0449 16.9562 23.0104 16.7467 22.9341 16.5495C22.8577 16.3523 22.7411 16.1713 22.5907 16.0167C22.4404 15.8622 22.2594 15.7372 22.0579 15.6489C21.8565 15.5606 21.6387 15.5107 21.4168 15.5021H21.4184ZM29.1221 2.91666H7.87793C7.44968 2.91743 7.02579 2.99803 6.63049 3.15385C6.23519 3.30967 5.87622 3.53766 5.57412 3.82478C5.27202 4.11191 5.0327 4.45254 4.86985 4.82721C4.70699 5.20188 4.6238 5.60323 4.62501 6.00833V26.2879C4.6238 26.6929 4.70694 27.0941 4.8697 27.4687C5.03246 27.8433 5.27164 28.1838 5.57358 28.4709C5.87552 28.7581 6.2343 28.9861 6.62942 29.142C7.02454 29.2979 7.44827 29.3786 7.87639 29.3796H25.8584L25.0166 26.6029L27.047 28.3879L28.9664 30.0679L32.375 32.9175V6.00687C32.376 5.60202 32.2927 5.20094 32.1299 4.82653C31.967 4.45213 31.7278 4.11174 31.4259 3.82478C31.124 3.53783 30.7653 3.30994 30.3702 3.15413C29.9752 2.99831 29.5516 2.91762 29.1236 2.91666H29.1221ZM23.0017 22.5065C23.0017 22.5065 22.4313 21.8619 21.9549 21.2917C23.1044 21.0357 24.1212 20.4034 24.8255 19.5067C24.2549 19.866 23.643 20.163 23.0017 20.3919C22.2642 20.6895 21.4929 20.9058 20.7031 21.0365C19.345 21.2731 17.9522 21.2681 16.5961 21.0219C15.7999 20.8746 15.0197 20.6588 14.2651 20.3773C13.8672 20.2324 13.4804 20.0619 13.1073 19.8669C13.0595 19.8377 13.0117 19.8231 12.9639 19.7925C12.9406 19.781 12.9198 19.7657 12.9022 19.7473C12.6155 19.5971 12.4567 19.4921 12.4567 19.4921C13.1353 20.3701 14.1168 20.9963 15.2317 21.2625C14.7568 21.8312 14.1695 22.5065 14.1695 22.5065C13.2276 22.5305 12.294 22.3352 11.4506 21.9377C10.6073 21.5403 9.8802 20.9528 9.33326 20.2271C9.38462 17.186 10.1653 14.1956 11.6165 11.4815C12.8934 10.5327 14.4502 9.98241 16.0719 9.90646L16.2307 10.0873C14.7049 10.4443 13.2811 11.115 12.0605 12.0517C12.0605 12.0517 12.4089 11.8723 12.9963 11.6171C14.1361 11.1248 15.351 10.8059 16.5961 10.6721C16.6849 10.6549 16.7752 10.6451 16.8658 10.6429C17.9281 10.5118 19.0031 10.5015 20.0679 10.6123C21.7429 10.793 23.3643 11.282 24.8409 12.0517C23.6826 11.1598 22.3374 10.5106 20.8942 10.1471L21.1147 9.90646C22.7364 9.98241 24.2932 10.5327 25.5701 11.4815C27.0218 14.1954 27.8031 17.1858 27.8548 20.2271C27.3034 20.9522 26.573 21.5389 25.7271 21.9362C24.8813 22.3334 23.9457 22.5292 23.0017 22.5065Z" fill="white"/>
</svg>
