<svg width="36" height="35" viewBox="0 0 36 35" fill="none" xmlns="http://www.w3.org/2000/svg">
<path d="M18 0C8.061 0 0 7.83708 0 17.5C0 27.1629 8.061 35 18 35C27.939 35 36 27.1629 36 17.5C36 7.83708 27.9435 0 18 0ZM8.88 18.0877L8.9565 17.9696L13.641 10.8471C13.6567 10.8237 13.6786 10.8048 13.7043 10.7924C13.7301 10.78 13.7588 10.7746 13.7875 10.7767C13.8161 10.7787 13.8437 10.7883 13.8673 10.8043C13.8908 10.8202 13.9096 10.8421 13.9215 10.8675C14.7015 12.5723 15.3795 14.6927 15.0615 16.0125C14.9295 16.555 14.559 17.29 14.1405 17.9696C14.0868 18.069 14.0282 18.1658 13.965 18.2598C13.9499 18.2807 13.9296 18.2977 13.906 18.3092C13.8825 18.3206 13.8563 18.3262 13.83 18.3254H9.0195C8.99079 18.3258 8.96249 18.3187 8.93761 18.3048C8.91274 18.2908 8.89221 18.2706 8.87821 18.2462C8.86421 18.2218 8.85727 18.1942 8.85811 18.1663C8.85895 18.1384 8.86755 18.1112 8.883 18.0877H8.88ZM29.751 20.5377C29.7514 20.5688 29.7423 20.5994 29.725 20.6256C29.7077 20.6518 29.6828 20.6724 29.6535 20.685C29.289 20.8352 28.0485 21.3923 27.5325 22.0879C26.2155 23.87 25.2105 26.4192 22.9605 26.4192H13.5795C12.7874 26.418 12.0034 26.2651 11.2721 25.9693C10.5409 25.6734 9.87677 25.2403 9.31775 24.6948C8.75873 24.1493 8.31576 23.502 8.01415 22.7899C7.71255 22.0779 7.55823 21.3151 7.56 20.545V20.44C7.56 20.3554 7.632 20.2854 7.722 20.2854H12.9495C13.0545 20.2854 13.1295 20.3773 13.122 20.4779C13.083 20.8075 13.1475 21.1473 13.3095 21.455C13.6185 22.0675 14.2635 22.4496 14.958 22.4496H17.547V20.4852H14.985C14.955 20.4849 14.9256 20.4766 14.9001 20.4613C14.8745 20.446 14.8538 20.4241 14.84 20.3982C14.8263 20.3722 14.8201 20.3431 14.8221 20.314C14.8241 20.2849 14.8343 20.2568 14.8515 20.2329L14.946 20.1017C15.186 19.7648 15.5325 19.2471 15.8775 18.655C16.1115 18.2554 16.3395 17.8296 16.5225 17.4008C16.5585 17.325 16.587 17.2448 16.62 17.1675C16.6695 17.0304 16.7205 16.9021 16.7565 16.7752C16.7918 16.6676 16.8243 16.5592 16.854 16.45C16.9395 16.0854 16.9755 15.7004 16.9755 15.3023C16.9755 15.1448 16.9695 14.98 16.9545 14.8254C16.947 14.6548 16.9245 14.4827 16.9035 14.3121C16.8867 14.1594 16.8627 14.0076 16.8315 13.8571C16.7911 13.6279 16.7421 13.4003 16.6845 13.1746L16.6635 13.0871C16.6185 12.9296 16.5795 12.7808 16.5285 12.6248C16.3857 12.1456 16.2215 11.6726 16.0365 11.2073C15.972 11.0322 15.901 10.8596 15.8235 10.6896C15.7155 10.43 15.6045 10.1952 15.504 9.975C15.454 9.88066 15.407 9.78485 15.363 9.68771C15.3142 9.58291 15.2627 9.47934 15.2085 9.37708C15.1725 9.29979 15.129 9.22542 15.1005 9.15542L14.784 8.58958C14.7405 8.51229 14.8125 8.4175 14.8995 8.44229L16.8795 8.96292H16.8945L17.154 9.03583L17.442 9.11458L17.547 9.14229V8.00042C17.547 7.44771 18 7 18.5655 7C18.699 6.99965 18.8313 7.02557 18.9542 7.07619C19.0772 7.12682 19.1883 7.20111 19.281 7.29458C19.4725 7.48239 19.5803 7.73595 19.581 8.00042V9.69792L19.7925 9.75479C19.8075 9.76208 19.8255 9.76937 19.839 9.77958C19.89 9.81458 19.965 9.87 20.0595 9.94C20.1345 9.99542 20.214 10.0654 20.307 10.1398C20.6032 10.3744 20.8904 10.6196 21.168 10.8748C21.489 11.165 21.849 11.5048 22.194 11.8825C22.2915 11.9904 22.3845 12.0954 22.482 12.2121C22.575 12.3273 22.68 12.4396 22.767 12.5504C22.8855 12.7021 23.007 12.8596 23.1195 13.0229C23.169 13.1002 23.2305 13.1804 23.277 13.2577C23.421 13.4648 23.544 13.6777 23.6625 13.8921C23.7135 13.9898 23.763 14.0977 23.8065 14.2027C23.94 14.49 24.045 14.7802 24.1095 15.0748C24.1308 15.1373 24.1454 15.2018 24.153 15.2673V15.2819C24.174 15.365 24.1815 15.4569 24.189 15.5502C24.2312 15.9812 24.177 16.4161 24.03 16.8248C23.9835 16.9473 23.94 17.0727 23.883 17.1952C23.7705 17.4431 23.6415 17.6954 23.487 17.9273C23.436 18.0148 23.3745 18.1052 23.3175 18.1927C23.253 18.2846 23.184 18.3721 23.127 18.4552C23.0445 18.5656 22.958 18.6731 22.8675 18.7775C22.788 18.8825 22.7085 18.9875 22.6185 19.0823C22.497 19.2252 22.3785 19.3594 22.251 19.4877C22.179 19.5723 22.101 19.6598 22.017 19.7356C21.939 19.8231 21.855 19.9004 21.783 19.9704C21.657 20.0929 21.558 20.1848 21.471 20.265L21.2655 20.4429C21.2369 20.4708 21.198 20.4866 21.1575 20.4867H19.581V22.4496H21.564C22.0065 22.4496 22.428 22.2979 22.77 22.015C22.8855 21.9173 23.3925 21.49 23.994 20.8454C24.0136 20.8235 24.0399 20.8082 24.069 20.8017L29.544 19.2602C29.568 19.2535 29.5934 19.2522 29.618 19.2565C29.6426 19.2609 29.6658 19.2707 29.6859 19.2853C29.706 19.2998 29.7223 19.3187 29.7336 19.3404C29.7449 19.3621 29.7508 19.3861 29.751 19.4104V20.5377Z" fill="white"/>
</svg>
