<svg width="36" height="35" viewBox="0 0 36 35" fill="none" xmlns="http://www.w3.org/2000/svg">
<path d="M33 8.45833C31.8725 8.93389 30.6801 9.24826 29.46 9.39167C30.7473 8.64401 31.7119 7.46781 32.175 6.08125C30.9653 6.78134 29.6411 7.2746 28.26 7.53958C27.3368 6.56625 26.1075 5.91835 24.7647 5.69749C23.422 5.47664 22.0418 5.69531 20.8407 6.31924C19.6396 6.94316 18.6854 7.93703 18.1279 9.14497C17.5703 10.3529 17.4409 11.7066 17.76 12.9938C15.3141 12.8735 12.9217 12.2543 10.738 11.1765C8.5543 10.0986 6.62827 8.58622 5.085 6.7375C4.54371 7.6565 4.25928 8.69724 4.26 9.75625C4.25808 10.7397 4.50633 11.7084 4.98263 12.576C5.45894 13.4437 6.14853 14.1833 6.99 14.7292C6.01197 14.7033 5.05483 14.4481 4.2 13.9854V14.0583C4.20733 15.4363 4.70399 16.7695 5.60597 17.8325C6.50795 18.8954 7.75988 19.6228 9.15 19.8917C8.61488 20.05 8.05931 20.1335 7.5 20.1396C7.11284 20.1352 6.72663 20.1011 6.345 20.0375C6.74086 21.2229 7.50693 22.2588 8.53661 23.0011C9.56629 23.7434 10.8084 24.1552 12.09 24.1792C9.9258 25.8348 7.25383 26.7383 4.5 26.7458C3.9986 26.7474 3.4976 26.7182 3 26.6583C5.81164 28.4233 9.08822 29.3602 12.435 29.3563C14.7445 29.3796 17.0357 28.9552 19.1747 28.108C21.3136 27.2608 23.2575 26.0078 24.8928 24.422C26.5281 22.8362 27.8219 20.9495 28.6988 18.8722C29.5757 16.7948 30.0181 14.5684 30 12.3229V11.55C31.177 10.6966 32.1922 9.65041 33 8.45833Z" fill="white"/>
</svg>
